<svg width="21" height="12" viewBox="0 0 21 12" fill="none" xmlns="http://www.w3.org/2000/svg">
<path fill-rule="evenodd" clip-rule="evenodd" d="M20.0411 0.956649C20.1801 0.501273 20.0411 0.166656 19.3794 0.166656H17.1914C16.6351 0.166656 16.3786 0.455715 16.2395 0.774457C16.2395 0.774457 15.1268 3.43839 13.5505 5.16875C13.0406 5.66966 12.8088 5.82908 12.5306 5.82908C12.3915 5.82908 12.1828 5.66966 12.1828 5.21433V0.956649C12.1828 0.410198 12.0288 0.166656 11.5651 0.166656H8.12678C7.77912 0.166656 7.57003 0.420274 7.57003 0.660641C7.57003 1.17867 8.35813 1.29813 8.43936 2.75533V5.92016C8.43936 6.614 8.31178 6.73983 8.03361 6.73983C7.29187 6.73983 5.48756 4.06401 4.41745 1.00217C4.20773 0.407049 3.99739 0.166656 3.43819 0.166656H1.25018C0.625037 0.166656 0.5 0.455715 0.5 0.774457C0.5 1.34369 1.24178 4.16699 3.95387 7.901C5.76191 10.451 8.30933 11.8333 10.6273 11.8333C12.0182 11.8333 12.1903 11.5263 12.1903 10.9975V9.07017C12.1903 8.45617 12.322 8.33358 12.7624 8.33358C13.0869 8.33358 13.6433 8.493 14.9413 9.7225C16.4249 11.1797 16.6695 11.8333 17.5039 11.8333H19.692C20.3171 11.8333 20.6297 11.5263 20.4494 10.9204C20.252 10.3166 19.5438 9.4405 18.6039 8.40192C18.0939 7.80992 17.3289 7.17241 17.0971 6.85358C16.7726 6.44383 16.8654 6.26166 17.0971 5.89741C17.0971 5.89741 19.7629 2.20888 20.0411 0.956649Z" fill="white"/>
</svg>
